# xmcd
#
# Track frame offsets:
#	150
#	39619
#	56808
#	81088
#	116363
#	139318
#	160918
#	179755
#	195898
#	225426
#	247000
#
# Disc length: 3584 seconds
#
# Revision: 1
# Processed by: cddbd v1.5.2PL0 Copyright (c) Steve Scherf et al.
# Submitted via: audiograbber 1.83.01
#
DISCID=920dfe0b
DTITLE=Grateful Dead - 73-06-24 Portland Memorial Coliseum, Portland OR
DYEAR=1900
DGENRE=
TTITLE0=Mississippi Half-Step
TTITLE1=You Ain't Woman Enough
TTITLE2=El Paso
TTITLE3=Stella Blues
TTITLE4=Greatest Story Ever Told
TTITLE5=Bertha
TTITLE6=Row Jimmy
TTITLE7=Beat It On Down The Line
TTITLE8=China Cat Sunflower
TTITLE9=I Know You Rider
TTITLE10=Around and Around
EXTD=
EXTT0=
EXTT1=
EXTT2=
EXTT3=
EXTT4=
EXTT5=
EXTT6=
EXTT7=
EXTT8=
EXTT9=
EXTT10=
PLAYORDER=
